<svg version="1.2" xmlns="http://www.w3.org/2000/svg" viewBox="0 0 747 709" width="747" height="709"><style>.a{fill:#f0d8d8}</style><path class="a" d="m345.4 0c8.9 0 17.7 0.4 19.6 0.9 1.9 0.5 7.8 1.5 13 2.1 5.2 0.6 14.7 2.2 21 3.7 6.3 1.4 16.2 4.1 22 6 5.8 1.9 14.5 5.4 19.5 7.8 4.9 2.4 12 6.7 15.7 9.4 3.8 2.8 8.7 7.5 10.9 10.3 2.3 2.9 5.1 7.3 6.4 9.8 1.2 2.5 3.2 7.4 4.3 11 1.2 3.6 3.5 12.8 5.1 20.5 1.7 7.7 4.2 17.4 5.6 21.5 1.4 4.1 4 10 5.7 13 1.7 3 5.2 8.4 7.8 12 2.6 3.6 7.6 9.2 11.1 12.4 3.5 3.2 8.9 7.6 11.9 9.6 3 2.1 8.4 5.2 12 7 3.6 1.8 9 4.1 12 5.2 3 1 8.2 2.5 11.5 3.3 3.3 0.7 14.1 2.5 24 4 9.9 1.4 20.9 3.3 24.5 4.1 3.6 0.8 9.2 2.3 12.5 3.3 3.3 1 8.7 3 12 4.4 3.3 1.4 9.8 4.7 14.5 7.4 4.7 2.6 11.4 7 15 9.7 3.6 2.8 11.2 9.5 16.9 15 5.7 5.6 13.1 13.7 16.5 18.1 3.5 4.4 8.5 11.4 11.3 15.5 2.7 4.1 7.3 11.8 10.2 17 2.9 5.2 7.6 14.9 10.6 21.5 2.9 6.6 6.9 16.9 8.9 23 1.9 6 4.5 14.8 5.6 19.5 1.1 4.7 2.5 14.1 3.2 21 0.9 9.5 0.9 15.4 0 24.5-0.6 6.6-2.1 15.1-3.3 19-1.1 3.8-3.2 9.7-4.6 13-1.4 3.3-5.3 10.3-8.8 15.5-3.8 5.8-9.9 13-15.6 18.6-5.2 5-13.7 11.9-18.9 15.3-5.2 3.5-12.9 8-17 10.1-4.1 2.1-11.3 5.3-16 7.3-4.7 1.9-18 6.4-29.5 10.1-11.6 3.6-23.9 7.6-27.5 9-3.6 1.3-8.7 3.4-11.5 4.7-2.8 1.2-8.6 4.3-13 6.9-4.4 2.6-11.6 7.6-16 11-4.4 3.5-12.1 10.4-17 15.5-5 5-13.3 14.5-18.6 21-5.3 6.6-17.6 23.2-27.4 37-9.8 13.7-21.5 29.7-26.1 35.5-4.5 5.8-11.7 14.4-16.1 19.1-4.3 4.8-11.2 11.7-15.3 15.4-4.1 3.8-10.7 9.1-14.5 12-3.9 2.8-11.1 7.6-16 10.6-5 2.9-13.5 7.3-19 9.7-5.5 2.4-14.1 5.7-19 7.4-5 1.6-12.8 3.8-17.5 4.9-4.7 1.1-14.4 3-21.5 4.2-11 1.8-16.8 2.1-38 2.1-17.3 0-28.5-0.6-36.5-1.7-6.3-0.9-17.4-2.7-24.5-4.1-7.2-1.4-19.5-4.4-27.5-6.7-8-2.3-18.3-5.6-23-7.4-4.7-1.8-11-4.5-14-6-3-1.5-8-4.5-11-6.5-3-2.1-7.9-6.3-10.8-9.4-2.8-3.1-6.7-8.6-8.5-12.4-3.1-6.5-3.2-7.1-3.2-19.2 0-11.9 0.3-13.4 5.2-31.5 2.9-10.5 5.8-23.3 6.4-28.5 0.6-5.2 0.9-13.6 0.5-18.5-0.3-5-1.3-12.8-2.2-17.5-0.9-4.7-2.9-12.3-4.6-17-1.6-4.7-5.1-12.5-7.6-17.4-2.6-4.8-7.5-12.5-10.8-17-3.4-4.4-10.1-11.9-15-16.6-4.9-4.7-16.4-14.1-25.4-20.9-9.1-6.9-21-16.3-26.5-21-5.4-4.7-12.8-12-16.3-16.1-3.5-4.1-8.7-11.1-11.6-15.5-3-4.4-7.6-12.5-10.4-18-2.8-5.5-6.5-13.6-8.1-18-1.7-4.4-4.2-11.8-5.5-16.5-1.4-4.7-3.5-13.5-4.7-19.5-1.8-8.8-2.3-15.5-2.6-34-0.4-18.2-0.1-25.5 1.2-35 0.9-6.6 3-17 4.5-23 1.5-6.1 4.5-15.5 6.5-21 2.1-5.5 5.9-14.4 8.6-19.8 2.7-5.3 7.3-13.4 10.2-18 2.9-4.5 8.7-12.3 12.8-17.2 4.1-5 11.2-12.4 15.8-16.5 4.5-4.1 13.5-11.4 19.9-16.2 6.4-4.8 19.6-13.4 29.2-19.1 9.6-5.8 40.4-23.2 68.5-38.7 28-15.5 55.3-30.6 60.5-33.5 6.5-3.6 11.1-7.1 14.5-10.8 2.9-3.2 6.9-6.3 9.5-7.5 2.5-1 8.8-3.1 14-4.6 5.2-1.5 13.8-3.6 19-4.7 5.2-1.1 14.9-2.6 21.5-3.5 6.6-0.8 12.2-1.7 12.4-1.9 0.2-0.3 7.7-0.5 16.5-0.5z"/></svg>