<svg version="1.2" xmlns="http://www.w3.org/2000/svg" viewBox="0 0 824 630" width="824" height="630"><style>.a{fill:#efd7d7}</style><path class="a" d="m412.5 0.1c19.7-0.1 25.6 0.3 41 2.4 9.9 1.4 23.6 3.7 30.5 5.1 6.9 1.3 20.4 4.7 30 7.4 9.6 2.7 23.8 7.1 31.5 9.8 7.7 2.8 20.5 7.5 28.5 10.5 8 3.1 18.3 7.1 23 9 4.7 1.9 15.7 6.4 24.5 10 8.8 3.6 21.6 9 28.5 12 6.9 3 18.6 8.4 26 11.9 7.4 3.6 18 9.1 23.5 12.3 5.5 3.2 15.2 9.3 21.5 13.6 6.3 4.2 16.2 11.7 22 16.6 5.8 4.9 14.7 13.6 19.8 19.4 5.1 5.7 12.8 15.6 17 21.9 4.3 6.3 10 16 12.9 21.5 2.8 5.5 7.2 15.4 9.8 22 2.6 6.6 6.2 17.2 8 23.5 1.8 6.3 4.5 17.1 5.8 24 1.4 6.9 3.2 16.9 3.9 22.4 0.8 6 1.8 10 2.5 10.2 1 0.3 1.3 9.1 1.3 39.6-0.1 21.6-0.5 41.3-1.1 43.8-0.5 2.5-1.8 11.5-2.9 20-1.1 8.5-2.7 19.1-3.6 23.5-0.8 4.4-2.6 12.3-4 17.5-1.3 5.2-3.6 12.6-5.1 16.5-1.4 3.8-4.8 11.5-7.5 17-2.8 5.5-7.4 13.6-10.2 18-2.9 4.4-7.9 11.1-11.1 15-3.2 3.8-9.9 11.2-14.9 16.4-5 5.1-15.2 14.6-22.6 21-7.4 6.4-17.3 14.6-22 18.2-4.7 3.6-14.1 10.4-21 15.1-6.9 4.7-17.6 11.5-23.8 15.2-6.1 3.6-17.2 9.6-24.5 13.2-7.2 3.7-18.2 8.7-24.2 11.2-6.1 2.4-15.5 5.9-21 7.8-5.5 1.8-15.4 4.6-22 6.3-6.6 1.6-17.6 3.9-24.5 5.1-6.9 1.1-15.4 2.6-19 3.2-3.9 0.6-15.2 0.8-28.5 0.5-12.1-0.3-23.8-1-26-1.5-2.2-0.6-8.1-1.8-13-2.7-5-0.9-14-3.1-20-4.8-6.1-1.7-18.4-5.9-27.5-9.4-9.1-3.6-20.6-7.9-25.5-9.7-5-1.8-13.3-4.5-18.5-5.9-5.2-1.5-14.2-3.4-20-4.2-5.8-0.8-16.6-1.8-24-2.1-8.4-0.4-26.2 0-47 1.1-21.8 1.2-39.6 1.6-51 1.2-9.6-0.4-22-1.3-27.5-2.2-5.5-0.9-15.2-2.9-21.5-4.5-6.3-1.6-15.8-4.4-21-6.3-5.2-1.9-13.6-5.1-18.5-7.2-5-2.1-16.9-7.8-26.5-12.8-9.6-4.9-21.8-11.6-27-15-5.2-3.3-13.1-8.8-17.5-12-4.4-3.3-12.2-10.1-17.3-15.1-5.2-5-12.2-12.7-15.7-17.1-3.4-4.4-8.7-11.8-11.6-16.5-2.9-4.7-7.6-13.5-10.4-19.5-2.9-6.1-7-16.6-9.3-23.5-2.2-6.9-4.8-15.7-5.7-19.5-0.9-3.9-2.3-10.6-3.1-15-0.8-4.4-2.2-12.7-3.1-18.5-1.4-8.8-1.7-20.1-1.7-69.5-0.1-50.4 0.2-61.2 1.7-74 0.9-8.3 2.4-19.3 3.2-24.5 0.9-5.2 2.6-14.7 3.9-21 1.3-6.3 3.8-16.5 5.6-22.5 1.7-6.1 4.7-15.3 6.7-20.5 1.9-5.2 5.7-14.2 8.5-20 2.7-5.8 7.5-14.8 10.6-20 3.1-5.2 9-14 13.2-19.5 4.1-5.5 11.5-14.1 16.5-19.1 4.9-4.9 12.6-11.7 17-15 4.4-3.3 11.4-8.1 15.5-10.7 4.1-2.5 12-6.6 17.5-9.1 5.5-2.4 14.3-5.8 19.5-7.5 5.2-1.7 14.4-4.2 20.5-5.6 6-1.5 18.2-3.7 27-5 8.8-1.3 21.6-2.9 28.5-3.6 7.5-0.7 13.1-1.8 14-2.6 1-0.8 8.3-2 20.5-3.3 10.4-1 26.2-2.6 35-3.4 8.8-0.9 27-2.7 40.5-4 13.5-1.4 30.3-3 37.5-3.6 7.1-0.7 15.9-1.5 19.5-2 3.6-0.4 16.8-0.8 29.5-0.9z"/></svg>