<svg version="1.2" xmlns="http://www.w3.org/2000/svg" viewBox="0 0 816 621" width="816" height="621"><style>.a{fill:#e77d7d}</style><path class="a" d="m414 0.5c31.3 0.2 38.2 0.5 48.5 2.3 6.6 1.1 18.3 3.4 26 5.1 7.7 1.8 20.1 5 27.5 7.2 7.4 2.2 19.1 6 26 8.4 6.9 2.4 15.4 5.5 19 6.8 3.6 1.4 10.1 3.8 14.5 5.5 4.4 1.7 11.8 4.6 16.5 6.5 4.7 1.9 15.7 6.4 24.5 10 8.8 3.6 21.4 8.9 28 11.7 6.6 2.9 19.9 9.1 29.5 13.9 9.6 4.8 23.3 12.4 30.5 16.8 7.1 4.5 17.3 11.4 22.5 15.4 5.2 4 14.4 12.1 20.4 17.9 5.9 5.8 14.5 15.4 19.1 21.5 4.5 6 10.7 15.3 13.8 20.5 3.1 5.2 7.9 14.4 10.6 20.5 2.7 6 6.7 16.4 9 23 2.2 6.6 4.9 15.4 6 19.5 1 4.1 2.4 10 3.1 13 0.6 3 2.3 12.5 3.8 21 2.4 14.2 2.6 18.4 3 49.5 0.2 19.5-0.1 39.5-0.8 47-0.6 7.1-1.7 18.2-2.6 24.5-0.8 6.3-2.6 17.1-4 24-1.4 6.9-4.1 17.2-6.1 23-1.9 5.8-5.3 14.3-7.5 19-2.1 4.7-5.6 11.2-7.5 14.5-2 3.3-6.8 10.3-10.7 15.5-3.9 5.2-11.8 14.4-17.6 20.4-5.8 6-15.2 15-21 20.1-5.8 5-15.5 13.1-21.5 17.9-6.1 4.8-18.7 13.8-28 20-9.4 6.2-20.6 13.3-25 15.8-4.4 2.5-13.4 7.2-20 10.5-6.6 3.3-17.2 8.1-23.5 10.6-6.3 2.5-16.2 6.1-22 8-5.8 1.9-15.2 4.7-21 6.1-5.8 1.4-15.7 3.5-22 4.8-10.4 2-14.5 2.2-43 2.3-30.5 0-31.9-0.1-44-2.7-6.9-1.5-16.3-3.8-21-5.2-4.7-1.3-12.8-4-18-6-5.2-1.9-16-6-24-9.1-8-3.1-18.8-6.9-24-8.4-5.2-1.6-13.8-3.7-19-4.7-8.6-1.7-13.2-1.9-47.5-1.5-20.9 0.3-51.3 0.5-67.5 0.5-24.6 0.1-31.2-0.2-39.5-1.7-5.5-1.1-13.6-2.8-18-3.9-4.4-1-12.1-3.3-17-4.9-5-1.7-14-5.1-20-7.6-6.1-2.4-17.3-7.6-25-11.5-7.7-3.8-18.7-9.9-24.5-13.3-5.8-3.5-13.9-8.8-18.1-11.7-4.2-2.9-11.2-8.3-15.5-12-4.4-3.7-10.8-10-14.4-14-3.6-4-8.6-10-11.1-13.3-2.5-3.3-6.9-9.8-9.7-14.5-2.8-4.7-7.2-13-9.8-18.5-2.5-5.5-6.4-15.2-8.5-21.5-2.1-6.3-4.7-15.3-5.8-20-1.1-4.7-2.4-11-3-14-0.6-3-1.6-8.9-2.1-13-0.6-4.1-1.9-13.1-2.8-20-1.3-9.9-1.6-20.9-1.6-52.5-0.1-24 0.4-45.8 1.2-54.5 0.7-8 1.9-20.1 2.8-27 0.8-6.9 2.6-19 4-27 1.3-8 4-20.5 5.9-27.8 1.9-7.2 5.3-18.3 7.6-24.5 2.2-6.1 7.4-18 11.4-26.2 4-8.3 10.1-19.1 13.4-24 3.3-5 9.3-13 13.3-17.9 4-4.9 11-12.3 15.4-16.5 4.5-4.2 11.7-10.2 16-13.3 4.4-3.1 10.6-7.3 13.9-9.2 3.3-2 10.3-5.5 15.5-7.8 5.2-2.3 12.4-5.1 16-6.4 3.6-1.2 10.8-3.3 16-4.7 5.2-1.4 13.1-3.2 17.5-4 4.4-0.9 14.5-2.5 22.5-3.6 8-1.1 19.2-2.5 25-3.1 5.8-0.6 11.2-1.8 12-2.5 0.9-0.8 6.2-1.8 13-2.4 6.3-0.6 25.7-2.4 43-4.1 17.3-1.6 32.8-3.2 34.5-3.4 1.6-0.3 13.1-1.4 25.5-2.6 12.4-1.1 24.5-2.2 27-2.4 2.5-0.2 20.9-0.2 41-0.1z"/></svg>