<svg version="1.2" xmlns="http://www.w3.org/2000/svg" viewBox="0 0 795 622" width="795" height="622"><style></style><path  d="m399.9 0c11.6 0 21.1 0.3 21.1 0.7 0 0.5 5.7 1.4 12.7 2.1 7.1 0.7 16.6 1.9 21.3 2.8 4.7 0.8 11.4 2.2 15 3 3.6 0.8 9.9 2.3 14 3.4 4.1 1 11.5 3 16.5 4.5 4.9 1.4 14.4 4.4 21 6.7 6.6 2.2 20.5 7.4 31 11.6 10.4 4.1 31.4 12.6 46.5 18.9 15.1 6.4 34.7 15 43.5 19.2 8.8 4.3 20.7 10.3 26.5 13.5 5.8 3.2 15.4 9.1 21.5 13.2 6 4 14.8 10.4 19.5 14.1 4.6 3.7 12 10.4 16.5 14.8 4.4 4.4 10.8 11.4 14.1 15.5 3.4 4.1 9.2 12.2 12.9 18 3.8 5.8 9.7 16.3 13.1 23.5 3.4 7.1 7.6 16.8 9.2 21.5 1.7 4.7 4.5 13.2 6.1 19 1.7 5.8 3.7 13.9 4.6 18 0.9 4.1 2.5 12.7 3.5 19 1 6.3 2.3 15 2.7 19.3 0.4 4.2 1.1 7.7 1.5 7.7 0.5 0 0.8 16.4 0.8 36.5 0 20.1-0.3 36.3-0.8 36.1-0.4-0.2-1.1 3.7-1.5 8.7-0.5 5.1-1.7 15.3-2.8 22.7-1.1 7.4-3.1 18.7-4.5 25-1.5 6.3-4.3 16.2-6.4 22-2 5.8-5.6 14.3-8 19-2.3 4.7-6.3 11.6-8.7 15.5-2.5 3.8-7 10.1-10.1 14-3.1 3.8-8.6 10.3-12.2 14.3-3.6 4.1-13 13.3-21 20.4-8 7.2-18.2 16.1-22.8 19.7-4.6 3.6-13.8 10.5-20.5 15.3-6.7 4.8-18.5 12.5-26.2 17.2-7.7 4.6-20.8 11.6-29 15.6-8.3 4-21 9.5-28.3 12.1-7.2 2.7-17.1 6-21.9 7.4-4.9 1.4-12 3.3-15.8 4.1-3.9 0.8-12.2 2.5-18.5 3.6-9.9 1.9-15.3 2.2-38 2.2-20.6 0-28.4-0.4-35-1.7-4.7-0.9-12.3-2.5-17-3.6-4.7-1.1-12.6-3.4-17.5-4.9-5-1.6-18-6.5-29-10.9-11-4.4-24.1-9.2-29-10.7-5-1.4-12.4-3.2-16.5-4-4.1-0.8-13.8-2-21.5-2.7-11.9-1-19.4-1-50 0.6-22.3 1.1-42.3 1.6-52.5 1.2-9.1-0.3-21-1.3-26.5-2.2-5.5-0.9-13.6-2.5-18-3.6-4.4-1.2-11.8-3.3-16.5-4.9-4.7-1.5-12.1-4.2-16.5-6-4.4-1.8-15-6.7-23.5-10.9-8.5-4.3-19.6-10.1-24.5-13-5-2.9-13.3-8.3-18.5-11.9-5.2-3.6-13.3-9.8-18-13.8-4.7-4.1-11-10.2-14-13.6-3.1-3.5-7.6-9-10.1-12.3-2.5-3.3-6.3-8.7-8.4-12-2.1-3.3-6.3-11-9.3-17-3-6.1-7.2-15.7-9.2-21.5-2.1-5.8-5-15.5-6.5-21.5-1.5-6.1-3.3-14.6-4.1-19-0.8-4.4-2.5-14.8-3.6-23-2-13.6-2.2-19.4-2.2-63-0.1-38.9 0.3-51.3 1.7-65.5 1-9.6 2.5-22.2 3.3-28 0.8-5.8 2.4-15.2 3.5-21 1.1-5.8 3.3-15.7 5-22 1.6-6.3 4.2-14.9 5.5-19 1.4-4.1 4.4-12 6.7-17.5 2.2-5.5 6.3-14.3 9.1-19.5 2.7-5.2 7-12.7 9.4-16.5 2.5-3.9 7.4-10.8 11.1-15.5 3.6-4.7 10.9-12.8 16.1-18 5.3-5.2 13.8-12.5 19-16.3 5.2-3.7 15.3-9.6 22.5-13.1 7.1-3.5 17.3-7.8 22.5-9.4 5.2-1.7 12-3.7 15-4.5 3-0.8 9.1-2.2 13.5-3.1 4.4-0.8 12.3-2.2 17.5-3 5.2-0.8 16.2-2.2 24.5-3.1 8.9-1 15.6-2.2 16.5-3 1-0.9 9-2.1 22.5-3.5 11.5-1.1 30-2.9 41-4.1 11-1.1 30.8-3.1 44-4.4 13.2-1.3 29.7-2.8 36.7-3.2 6.9-0.4 12.4-1.1 12.1-1.6-0.3-0.4 9-0.7 20.6-0.7z"/></svg>